Normalized EMG Linear Envelopes
nRows=65
nColumns=17

endheader
time	        VM	        VL	        RF	       GRA	        TA	   ADDLONG	   SEMIMEM	      BFLH	        GM	        GL	       TFL	   GLUTMAX	   GLUTMED	      PIRI	    OBTINT	        QF	
1.685	  0.471499	  0.496956	  0.155959	  0.383412	  0.068947	  0.228302	  0.536499	  0.242771	  0.241618	  0.159951	  0.132344	  0.076797	  0.200636	  0.189048	  0.270131	  0.402573	
1.6855	  0.473404	  0.501462	  0.158930	  0.379936	  0.069391	  0.228887	  0.531294	  0.239810	  0.239229	  0.159960	  0.133708	  0.076496	  0.203204	  0.189130	  0.270120	  0.398469	
1.686	  0.475264	  0.505921	  0.161920	  0.376465	  0.069835	  0.229459	  0.526025	  0.236863	  0.236810	  0.159948	  0.135067	  0.076208	  0.205786	  0.189250	  0.270181	  0.394402	
1.6865	  0.477077	  0.510331	  0.164928	  0.373003	  0.070278	  0.230020	  0.520695	  0.233931	  0.234365	  0.159915	  0.136421	  0.075933	  0.208381	  0.189408	  0.270317	  0.390375	
1.687	  0.478842	  0.514689	  0.167952	  0.369551	  0.070721	  0.230569	  0.515307	  0.231016	  0.231893	  0.159863	  0.137768	  0.075670	  0.210987	  0.189604	  0.270527	  0.386388	
1.6875	  0.480559	  0.518991	  0.170992	  0.366112	  0.071163	  0.231106	  0.509865	  0.228117	  0.229399	  0.159791	  0.139108	  0.075420	  0.213604	  0.189838	  0.270813	  0.382443	
1.688	  0.482226	  0.523236	  0.174047	  0.362686	  0.071605	  0.231630	  0.504373	  0.225237	  0.226884	  0.159700	  0.140440	  0.075183	  0.216231	  0.190109	  0.271175	  0.378541	
1.6885	  0.483844	  0.527420	  0.177115	  0.359277	  0.072046	  0.232143	  0.498835	  0.222374	  0.224349	  0.159590	  0.141764	  0.074959	  0.218866	  0.190418	  0.271615	  0.374682	
1.689	  0.485410	  0.531542	  0.180197	  0.355885	  0.072486	  0.232643	  0.493254	  0.219531	  0.221797	  0.159462	  0.143079	  0.074747	  0.221508	  0.190763	  0.272134	  0.370868	
1.6895	  0.486925	  0.535600	  0.183290	  0.352514	  0.072926	  0.233131	  0.487635	  0.216707	  0.219229	  0.159315	  0.144383	  0.074547	  0.224155	  0.191146	  0.272731	  0.367101	
1.69	  0.488386	  0.539590	  0.186394	  0.349164	  0.073366	  0.233607	  0.481981	  0.213904	  0.216648	  0.159150	  0.145676	  0.074361	  0.226807	  0.191565	  0.273407	  0.363380	
1.6905	  0.489792	  0.543510	  0.189508	  0.345838	  0.073804	  0.234069	  0.476296	  0.211122	  0.214054	  0.158968	  0.146957	  0.074186	  0.229461	  0.192020	  0.274164	  0.359706	
1.691	  0.491143	  0.547359	  0.192629	  0.342538	  0.074242	  0.234520	  0.470583	  0.208362	  0.211450	  0.158768	  0.148225	  0.074024	  0.232117	  0.192512	  0.275001	  0.356082	
1.6915	  0.492437	  0.551133	  0.195758	  0.339264	  0.074679	  0.234958	  0.464846	  0.205623	  0.208837	  0.158550	  0.149480	  0.073874	  0.234773	  0.193040	  0.275920	  0.352507	
1.692	  0.493672	  0.554830	  0.198892	  0.336020	  0.075115	  0.235384	  0.459088	  0.202907	  0.206217	  0.158316	  0.150720	  0.073736	  0.237426	  0.193603	  0.276920	  0.348981	
1.6925	  0.494848	  0.558448	  0.202031	  0.332807	  0.075551	  0.235797	  0.453312	  0.200215	  0.203591	  0.158064	  0.151944	  0.073610	  0.240076	  0.194201	  0.278002	  0.345507	
1.693	  0.495962	  0.561983	  0.205173	  0.329627	  0.075985	  0.236199	  0.447522	  0.197546	  0.200961	  0.157794	  0.153153	  0.073496	  0.242721	  0.194833	  0.279167	  0.342085	
1.6935	  0.497013	  0.565433	  0.208316	  0.326482	  0.076418	  0.236589	  0.441722	  0.194900	  0.198329	  0.157508	  0.154344	  0.073393	  0.245359	  0.195500	  0.280414	  0.338715	
1.694	  0.498000	  0.568793	  0.211460	  0.323373	  0.076850	  0.236966	  0.435915	  0.192280	  0.195697	  0.157204	  0.155517	  0.073302	  0.247987	  0.196200	  0.281743	  0.335399	
1.6945	  0.498921	  0.572062	  0.214602	  0.320303	  0.077281	  0.237331	  0.430104	  0.189684	  0.193065	  0.156884	  0.156671	  0.073222	  0.250605	  0.196932	  0.283155	  0.332138	
1.695	  0.499775	  0.575235	  0.217741	  0.317272	  0.077710	  0.237684	  0.424294	  0.187114	  0.190436	  0.156546	  0.157805	  0.073153	  0.253210	  0.197697	  0.284651	  0.328931	
1.6955	  0.500561	  0.578309	  0.220875	  0.314284	  0.078137	  0.238024	  0.418487	  0.184570	  0.187812	  0.156191	  0.158918	  0.073095	  0.255800	  0.198494	  0.286229	  0.325781	
1.696	  0.501277	  0.581281	  0.224004	  0.311340	  0.078563	  0.238352	  0.412687	  0.182052	  0.185193	  0.155819	  0.160009	  0.073047	  0.258372	  0.199322	  0.287891	  0.322687	
1.6965	  0.501922	  0.584147	  0.227125	  0.308441	  0.078987	  0.238666	  0.406899	  0.179561	  0.182581	  0.155429	  0.161077	  0.073010	  0.260926	  0.200180	  0.289637	  0.319650	
1.697	  0.502494	  0.586904	  0.230237	  0.305589	  0.079408	  0.238968	  0.401125	  0.177097	  0.179978	  0.155022	  0.162122	  0.072983	  0.263457	  0.201067	  0.291467	  0.316672	
1.6975	  0.502992	  0.589550	  0.233338	  0.302786	  0.079827	  0.239255	  0.395370	  0.174660	  0.177386	  0.154598	  0.163141	  0.072965	  0.265965	  0.201983	  0.293381	  0.313752	
1.698	  0.503415	  0.592081	  0.236427	  0.300032	  0.080244	  0.239529	  0.389635	  0.172252	  0.174805	  0.154157	  0.164134	  0.072957	  0.268446	  0.202928	  0.295380	  0.310891	
1.6985	  0.503762	  0.594495	  0.239502	  0.297329	  0.080657	  0.239789	  0.383926	  0.169872	  0.172237	  0.153699	  0.165101	  0.072957	  0.270898	  0.203899	  0.297463	  0.308090	
1.699	  0.504031	  0.596790	  0.242562	  0.294680	  0.081068	  0.240034	  0.378244	  0.167520	  0.169684	  0.153224	  0.166040	  0.072966	  0.273318	  0.204897	  0.299632	  0.305349	
1.6995	  0.504223	  0.598964	  0.245605	  0.292084	  0.081476	  0.240264	  0.372593	  0.165198	  0.167146	  0.152732	  0.166951	  0.072984	  0.275704	  0.205921	  0.301886	  0.302668	
1.7	  0.504337	  0.601015	  0.248630	  0.289543	  0.081880	  0.240479	  0.366977	  0.162905	  0.164624	  0.152225	  0.167833	  0.073009	  0.278054	  0.206970	  0.304226	  0.300049	
1.7005	  0.504373	  0.602942	  0.251635	  0.287058	  0.082280	  0.240679	  0.361397	  0.160642	  0.162121	  0.151702	  0.168687	  0.073042	  0.280363	  0.208043	  0.306650	  0.297490	
1.701	  0.504331	  0.604742	  0.254620	  0.284631	  0.082676	  0.240862	  0.355856	  0.158408	  0.159637	  0.151163	  0.169512	  0.073081	  0.282631	  0.209140	  0.309160	  0.294993	
1.7015	  0.504209	  0.606414	  0.257582	  0.282263	  0.083068	  0.241030	  0.350358	  0.156204	  0.157173	  0.150610	  0.170307	  0.073128	  0.284854	  0.210259	  0.311756	  0.292558	
1.702	  0.504009	  0.607956	  0.260522	  0.279954	  0.083455	  0.241180	  0.344904	  0.154030	  0.154731	  0.150042	  0.171073	  0.073180	  0.287029	  0.211401	  0.314437	  0.290184	
1.7025	  0.503732	  0.609368	  0.263437	  0.277705	  0.083837	  0.241314	  0.339498	  0.151886	  0.152310	  0.149461	  0.171810	  0.073239	  0.289154	  0.212565	  0.317203	  0.287872	
1.703	  0.503377	  0.610648	  0.266328	  0.275517	  0.084214	  0.241430	  0.334142	  0.149773	  0.149913	  0.148866	  0.172518	  0.073302	  0.291227	  0.213750	  0.320055	  0.285621	
1.7035	  0.502946	  0.611795	  0.269193	  0.273392	  0.084585	  0.241528	  0.328837	  0.147689	  0.147540	  0.148257	  0.173197	  0.073371	  0.293245	  0.214955	  0.322992	  0.283432	
1.704	  0.502441	  0.612809	  0.272030	  0.271329	  0.084951	  0.241608	  0.323587	  0.145636	  0.145192	  0.147636	  0.173847	  0.073445	  0.295207	  0.216180	  0.326014	  0.281303	
1.7045	  0.501864	  0.613690	  0.274840	  0.269330	  0.085310	  0.241670	  0.318394	  0.143613	  0.142870	  0.147004	  0.174469	  0.073522	  0.297110	  0.217425	  0.329122	  0.279236	
1.705	  0.501215	  0.614436	  0.277621	  0.267396	  0.085662	  0.241712	  0.313259	  0.141621	  0.140575	  0.146360	  0.175062	  0.073604	  0.298953	  0.218689	  0.332316	  0.277229	
1.7055	  0.500496	  0.615049	  0.280371	  0.265527	  0.086007	  0.241736	  0.308184	  0.139659	  0.138307	  0.145705	  0.175628	  0.073688	  0.300734	  0.219972	  0.335595	  0.275281	
1.706	  0.499709	  0.615527	  0.283089	  0.263723	  0.086346	  0.241740	  0.303172	  0.137727	  0.136068	  0.145042	  0.176167	  0.073776	  0.302451	  0.221275	  0.338959	  0.273393	
1.7065	  0.498855	  0.615871	  0.285775	  0.261986	  0.086676	  0.241726	  0.298223	  0.135826	  0.133858	  0.144369	  0.176680	  0.073866	  0.304105	  0.222597	  0.342408	  0.271565	
1.707	  0.497935	  0.616080	  0.288427	  0.260316	  0.086998	  0.241693	  0.293341	  0.133956	  0.131677	  0.143690	  0.177167	  0.073959	  0.305693	  0.223938	  0.345943	  0.269794	
1.7075	  0.496951	  0.616154	  0.291043	  0.258713	  0.087312	  0.241643	  0.288526	  0.132117	  0.129527	  0.143004	  0.177631	  0.074052	  0.307214	  0.225300	  0.349562	  0.268082	
1.708	  0.495905	  0.616093	  0.293624	  0.257180	  0.087617	  0.241575	  0.283780	  0.130308	  0.127408	  0.142312	  0.178071	  0.074147	  0.308668	  0.226681	  0.353265	  0.266427	
1.7085	  0.494796	  0.615897	  0.296169	  0.255716	  0.087912	  0.241491	  0.279105	  0.128530	  0.125321	  0.141615	  0.178489	  0.074243	  0.310054	  0.228082	  0.357052	  0.264829	
1.709	  0.493628	  0.615568	  0.298677	  0.254322	  0.088198	  0.241390	  0.274501	  0.126783	  0.123266	  0.140915	  0.178887	  0.074338	  0.311371	  0.229504	  0.360923	  0.263286	
1.7095	  0.492400	  0.615103	  0.301148	  0.252999	  0.088474	  0.241274	  0.269970	  0.125066	  0.121244	  0.140212	  0.179265	  0.074433	  0.312617	  0.230947	  0.364877	  0.261798	
1.71	  0.491114	  0.614506	  0.303581	  0.251748	  0.088739	  0.241143	  0.265514	  0.123381	  0.119255	  0.139507	  0.179625	  0.074527	  0.313792	  0.232412	  0.368913	  0.260365	
1.7105	  0.489770	  0.613774	  0.305976	  0.250570	  0.088992	  0.240998	  0.261133	  0.121726	  0.117301	  0.138801	  0.179967	  0.074620	  0.314895	  0.233899	  0.373031	  0.258986	
1.711	  0.488369	  0.612909	  0.308333	  0.249465	  0.089234	  0.240840	  0.256828	  0.120102	  0.115381	  0.138095	  0.180293	  0.074711	  0.315924	  0.235409	  0.377230	  0.257660	
1.7115	  0.486913	  0.611911	  0.310650	  0.248433	  0.089464	  0.240670	  0.252601	  0.118508	  0.113496	  0.137389	  0.180604	  0.074799	  0.316878	  0.236941	  0.381508	  0.256387	
1.712	  0.485402	  0.610780	  0.312927	  0.247476	  0.089682	  0.240490	  0.248453	  0.116946	  0.111648	  0.136686	  0.180902	  0.074885	  0.317756	  0.238497	  0.385865	  0.255167	
1.7125	  0.483836	  0.609516	  0.315164	  0.246595	  0.089887	  0.240300	  0.244383	  0.115413	  0.109835	  0.135986	  0.181186	  0.074968	  0.318558	  0.240077	  0.390299	  0.253999	
1.713	  0.482217	  0.608122	  0.317360	  0.245790	  0.090079	  0.240103	  0.240394	  0.113911	  0.108060	  0.135290	  0.181458	  0.075048	  0.319283	  0.241681	  0.394810	  0.252883	
1.7135	  0.480546	  0.606597	  0.319514	  0.245062	  0.090258	  0.239899	  0.236486	  0.112439	  0.106321	  0.134600	  0.181719	  0.075123	  0.319929	  0.243310	  0.399396	  0.251820	
1.714	  0.478823	  0.604945	  0.321627	  0.244412	  0.090423	  0.239689	  0.232659	  0.110998	  0.104621	  0.133915	  0.181970	  0.075195	  0.320498	  0.244964	  0.404055	  0.250809	
1.7145	  0.477050	  0.603167	  0.323698	  0.243842	  0.090576	  0.239476	  0.228914	  0.109586	  0.102959	  0.133238	  0.182211	  0.075261	  0.320987	  0.246642	  0.408785	  0.249851	
1.715	  0.475227	  0.601266	  0.325726	  0.243352	  0.090715	  0.239259	  0.225252	  0.108204	  0.101335	  0.132569	  0.182444	  0.075323	  0.321399	  0.248345	  0.413586	  0.248945	
1.7155	  0.473355	  0.599244	  0.327710	  0.242942	  0.090840	  0.239041	  0.221673	  0.106852	  0.099751	  0.131909	  0.182669	  0.075379	  0.321731	  0.250074	  0.418455	  0.248093	
1.716	  0.471435	  0.597104	  0.329651	  0.242615	  0.090951	  0.238823	  0.218177	  0.105529	  0.098207	  0.131259	  0.182887	  0.075429	  0.321985	  0.251828	  0.423391	  0.247292	
1.7165	  0.469469	  0.594849	  0.331548	  0.242371	  0.091049	  0.238605	  0.214766	  0.104235	  0.096703	  0.130620	  0.183099	  0.075473	  0.322161	  0.253607	  0.428392	  0.246545	
1.717	  0.467456	  0.592483	  0.333399	  0.242210	  0.091133	  0.238389	  0.211438	  0.102970	  0.095239	  0.129994	  0.183304	  0.075510	  0.322258	  0.255411	  0.433455	  0.245850	
